<?xml version="1.0" encoding="UTF-8"?>
<svg id="Layer_1" data-name="Layer 1" xmlns="http://www.w3.org/2000/svg" viewBox="0 0 612 792">
  <defs>
    <style>
      .cls-1 {
        fill: #f9f3f8;
      }

      .cls-1, .cls-2 {
        stroke-width: 0px;
      }

      .cls-2 {
        fill: #2d9ed8;
      }
    </style>
  </defs>
  <path class="cls-2" d="M355.17,356.98c0,33.76-27.37,61.13-61.13,61.13-7.42,0-14.54-1.32-21.12-3.75v-57.38c0-11.65,9.47-21.13,21.12-21.13s21.13,9.48,21.13,21.13-9.48,21.13-21.13,21.13c-4.53,0-8.73-1.43-12.17-3.88v22.04c3.85,1.2,7.93,1.84,12.17,1.84,22.68,0,41.13-18.45,41.13-41.13s-18.45-41.13-41.13-41.13-41.12,18.45-41.12,41.13v45.23c-12.29-11.18-20.01-27.3-20.01-45.23,0-33.76,27.37-61.13,61.13-61.13s61.13,27.37,61.13,61.13Z"/>
  <path class="cls-1" d="M335.17,356.98c0,22.68-18.45,41.13-41.13,41.13-4.24,0-8.32-.64-12.17-1.84v-22.04c3.44,2.45,7.64,3.88,12.17,3.88,11.65,0,21.13-9.48,21.13-21.13s-9.48-21.13-21.13-21.13-21.12,9.48-21.12,21.13v57.38c-7.46-2.74-14.23-6.9-20-12.15v-45.23c0-22.68,18.44-41.13,41.12-41.13s41.13,18.45,41.13,41.13Z"/>
  <polyline class="cls-2" points="272.92 414.36 272.92 446.45 252.92 446.45 252.92 402.21"/>
</svg>